<svg width="54" height="54" viewBox="0 0 54 54" fill="none" xmlns="http://www.w3.org/2000/svg">
<path d="M53.9456 15.3492L48.7087 36.2837C48.508 37.0898 48.0431 37.8056 47.3881 38.3167C46.7332 38.8278 45.926 39.1048 45.0952 39.1036H12.8309C11.9181 39.1032 11.0372 38.7677 10.3554 38.1608C9.67355 37.554 9.23817 36.7179 9.13184 35.8114L5.36127 5.58637H2.79318C2.05238 5.58637 1.34193 5.29205 0.818103 4.76823C0.294281 4.2444 0 3.53405 0 2.79325C0 2.05245 0.294281 1.34197 0.818103 0.818144C1.34193 0.29432 2.05238 0 2.79318 0H7.79844C8.47401 0.000163758 9.12664 0.245158 9.63547 0.689552C10.1443 1.13395 10.4749 1.74766 10.5659 2.41706L12.0202 13.0379H52.1388C52.4215 13.0384 52.7003 13.1031 52.9542 13.2271C53.2081 13.3512 53.4305 13.5313 53.6045 13.7539C53.7786 13.9766 53.8997 14.236 53.9588 14.5123C54.0179 14.7887 54.0134 15.0748 53.9456 15.3492Z" fill="white"/>
<path d="M11.1732 48.4136C11.1732 49.5185 11.5008 50.5986 12.1147 51.5173C12.7285 52.436 13.601 53.1519 14.6218 53.5747C15.6425 53.9976 16.7658 54.1082 17.8494 53.8927C18.9331 53.6771 19.9284 53.1451 20.7097 52.3638C21.491 51.5826 22.023 50.5871 22.2386 49.5034C22.4541 48.4198 22.3435 47.2965 21.9207 46.2757C21.4979 45.255 20.7819 44.3825 19.8632 43.7687C18.9445 43.1549 17.8644 42.8272 16.7596 42.8272C15.2785 42.8288 13.8585 43.418 12.8112 44.4653C11.7639 45.5126 11.1748 46.9325 11.1732 48.4136Z" fill="white"/>
<path d="M44.6913 48.4136C44.6913 47.3087 44.3637 46.2286 43.7499 45.31C43.136 44.3913 42.2636 43.6753 41.2428 43.2525C40.222 42.8297 39.0988 42.719 38.0151 42.9346C36.9315 43.1501 35.9361 43.6822 35.1548 44.4634C34.3735 45.2447 33.8415 46.2401 33.626 47.3238C33.4104 48.4074 33.521 49.5307 33.9439 50.5515C34.3667 51.5723 35.0827 52.4447 36.0014 53.0585C36.92 53.6724 38.0001 54 39.105 54C40.5861 53.9984 42.0061 53.4093 43.0534 52.362C44.1007 51.3147 44.6897 49.8947 44.6913 48.4136Z" fill="white"/>
</svg>
