<svg width="84" height="84" viewBox="0 0 84 84" fill="none" xmlns="http://www.w3.org/2000/svg">
<path d="M42 84C65.196 84 84 65.196 84 42C84 18.804 65.196 0 42 0C18.804 0 0 18.804 0 42C0 65.196 18.804 84 42 84Z" fill="white"/>
<path d="M61.224 22.7141H22.776L20 67H64L61.224 22.7141ZM31.9123 28.297C31.5848 28.2966 31.2647 28.199 30.9925 28.0166C30.7204 27.8341 30.5086 27.575 30.3835 27.272C30.2584 26.969 30.226 26.6357 30.2901 26.3142C30.3542 25.9927 30.5122 25.6974 30.7439 25.4657C30.9756 25.234 31.2708 25.0763 31.592 25.0125C31.9133 24.9487 32.2462 24.9816 32.5488 25.1071C32.8513 25.2327 33.1099 25.4452 33.2918 25.7179C33.4737 25.9905 33.5708 26.311 33.5708 26.6388C33.5708 26.8568 33.528 27.0725 33.4446 27.2738C33.3612 27.4751 33.239 27.658 33.0849 27.812C32.9309 27.966 32.748 28.0881 32.5468 28.1713C32.3456 28.2545 32.13 28.2973 31.9123 28.297ZM52.0016 28.297C51.674 28.297 51.3537 28.1997 51.0813 28.0175C50.8089 27.8353 50.5967 27.5764 50.4713 27.2734C50.3459 26.9704 50.313 26.637 50.3769 26.3154C50.4408 25.9938 50.5986 25.6983 50.8302 25.4664C51.0619 25.2345 51.3571 25.0766 51.6784 25.0126C51.9997 24.9486 52.3327 24.9815 52.6353 25.107C52.938 25.2325 53.1968 25.445 53.3788 25.7177C53.5609 25.9903 53.6581 26.3109 53.6581 26.6388C53.6581 27.0786 53.4834 27.5003 53.1727 27.8113C52.8621 28.1223 52.4409 28.297 52.0016 28.297Z" fill="#FDA01A"/>
<path d="M52.6905 22.7006H51.5788C51.5788 20.1576 50.5698 17.7188 48.7735 15.9206C46.9772 14.1225 44.5408 13.1123 42.0004 13.1123C39.4601 13.1123 37.0237 14.1225 35.2274 15.9206C33.4311 17.7188 32.422 20.1576 32.422 22.7006H31.3093C31.3093 19.8626 32.4357 17.1409 34.4404 15.1341C36.445 13.1274 39.1639 12 41.999 12C44.834 12 47.5529 13.1274 49.5576 15.1341C51.5622 17.1409 52.6886 19.8626 52.6886 22.7006H52.6905Z" fill="#FDA01A"/>
<path d="M52.258 35.9124C46.8433 34.7874 40.533 37.4382 38.8626 38.1777L38.8697 38.198C43.0029 37.8385 47.165 38.0359 51.2467 38.7849C54.5724 39.6017 54.8552 36.4525 52.258 35.9124Z" fill="white"/>
<path d="M50.7215 34.9566C48.0881 34.2619 41.2717 32.9477 35.3196 35.5334C30.7481 37.8098 33.8987 40.2033 36.5452 38.6612C41.5232 35.7612 45.9226 34.4653 50.7134 34.9932C50.7165 34.981 50.7185 34.9688 50.7215 34.9566Z" fill="white"/>
<path d="M50.3644 40.4914C45.97 39.522 41.1752 41.7181 39.866 42.301L39.8711 42.3162C43.1088 42.0317 46.3695 42.1839 49.5674 42.7689C52.1777 43.4097 52.394 40.939 50.3644 40.4914Z" fill="white"/>
<path d="M49.1598 39.4789C47.096 38.9347 41.7547 37.9388 37.0846 39.9651C33.5023 41.7482 35.9707 43.6981 38.0446 42.4907C41.9459 40.2173 45.3904 39.0933 49.1478 39.5073C49.1558 39.4982 49.1578 39.488 49.1598 39.4789Z" fill="white"/>
<path d="M48.7745 44.3218C45.5142 43.6444 41.7135 45.1437 40.7083 45.5913V45.6035C43.1991 45.4253 45.7023 45.5757 48.1547 46.051C50.1672 46.5424 50.3382 44.6473 48.7745 44.3218Z" fill="white"/>
<path d="M47.8486 43.3183C44.7877 42.4894 41.5482 42.6376 38.5738 43.7425C35.8217 45.1127 37.7185 46.5072 39.3124 45.5734C42.31 43.8269 44.9586 43.0172 47.8435 43.3356L47.8486 43.3183Z" fill="white"/>
<path d="M47.6093 47.5397C45.5215 47.267 43.4 47.5974 41.4902 48.4928V48.5019C43.3526 48.353 45.2264 48.4615 47.0599 48.8244C48.6256 49.2079 48.8279 47.7929 47.6093 47.5397Z" fill="white"/>
<path d="M46.8886 46.6416C44.5117 45.9647 41.985 46.0554 39.6616 46.901C37.5172 47.9691 38.9955 49.1928 40.2372 48.4695C42.1954 47.1418 44.5326 46.5053 46.8856 46.6589L46.8886 46.6416Z" fill="white"/>
<path d="M46.3342 50.0678C44.8799 49.8859 43.4041 50.1096 42.0666 50.7147V50.7208C43.3893 50.6254 44.7186 50.7359 46.0082 51.0484C47.0597 51.3576 47.1613 50.2407 46.3342 50.0678Z" fill="white"/>
<path d="M45.7739 49.4332C44.1733 48.9241 42.4535 48.9462 40.8663 49.4963C39.4102 50.2215 40.4145 51.0963 41.2567 50.605C42.5921 49.7219 44.1804 49.3135 45.7709 49.4444L45.7739 49.4332Z" fill="white"/>
<path d="M43.5097 55.9543L42.5225 54.3817C42.4578 54.2775 42.4026 54.1675 42.3575 54.0532C42.3159 53.9502 42.2998 53.8385 42.3106 53.7278C42.3214 53.6171 42.3587 53.5107 42.4194 53.4179C42.4801 53.325 42.5623 53.2486 42.6588 53.1952C42.7554 53.1417 42.8633 53.1129 42.9733 53.1113C43.728 53.1428 45.2928 53.4744 44.4827 54.6269L43.6013 55.9614C43.558 56.0174 43.5499 56.0103 43.5097 55.9543Z" fill="white"/>
<path d="M45.5534 52.1954C44.5271 52.0669 43.4855 52.2248 42.5416 52.6521C43.4243 52.5516 44.3177 52.6812 45.1368 53.0284C45.8432 53.3468 46.1381 52.3164 45.5534 52.1954Z" fill="white"/>
<path d="M45.2134 51.534C44.017 51.1896 42.7457 51.2165 41.5646 51.6113C40.5362 52.1199 41.464 52.9001 42.0255 52.5085C42.9423 51.8192 44.0695 51.4771 45.2103 51.5422L45.2134 51.534Z" fill="white"/>
</svg>
